HIERARCHY
ROOT SpineBase
{
  OFFSET 0.000000 0.000000 0.000000
  CHANNELS 6 Xposition Yposition Zposition Zrotation Xrotation Yrotation
  JOINT SpineMid
  {
    OFFSET -0.000000 23.306267 0.000000
    CHANNELS 3 Zrotation Xrotation Yrotation
    JOINT SpineShoulder
    {
      OFFSET -0.495056 18.494492 -0.812882
      CHANNELS 3 Zrotation Xrotation Yrotation
      JOINT Neck
      {
        OFFSET -0.118139 6.376100 -0.611441
        CHANNELS 3 Zrotation Xrotation Yrotation
        JOINT Head
        {
          OFFSET -0.298623 10.360223 0.961639
          CHANNELS 3 Zrotation Xrotation Yrotation
          End Site
          {
            OFFSET 0 0 0
          }
        }
      }
      JOINT ShoulderLeft
      {
        OFFSET -7.883961 -8.042623 14.701010
        CHANNELS 3 Zrotation Xrotation Yrotation
        JOINT ElbowLeft
        {
          OFFSET -2.957015 -20.171471 -2.027253
          CHANNELS 3 Zrotation Xrotation Yrotation
          JOINT WristLeft
          {
            OFFSET -1.516700 -20.554200 -8.837318
            CHANNELS 3 Zrotation Xrotation Yrotation
            JOINT HandLeft
            {
              OFFSET 2.541428 -6.560239 -0.220282
              CHANNELS 3 Zrotation Xrotation Yrotation
              JOINT HandTipLeft
              {
                OFFSET -1.260146 -4.765626 -1.654082
                CHANNELS 3 Zrotation Xrotation Yrotation
                End Site
                {
                  OFFSET 0 0 0
                }
              }
              JOINT ThumbLeft
              {
                OFFSET -1.996593 0.393911 -4.331116
                CHANNELS 3 Zrotation Xrotation Yrotation
                End Site
                {
                  OFFSET 0 0 0
                }
              }
            }
          }
        }
      }
      JOINT ShoulderRight
      {
        OFFSET 16.730438 -6.222486 1.828586
        CHANNELS 3 Zrotation Xrotation Yrotation
        JOINT ElbowRight
        {
          OFFSET -9.470386 21.576676 -7.635091
          CHANNELS 3 Zrotation Xrotation Yrotation
          JOINT WristRight
          {
            OFFSET -7.471632 22.797602 -1.952378
            CHANNELS 3 Zrotation Xrotation Yrotation
            JOINT HandRight
            {
              OFFSET -2.879268 7.359879 1.301602
              CHANNELS 3 Zrotation Xrotation Yrotation
              JOINT HandTipRight
              {
                OFFSET 1.292498 4.491646 -1.137475
                CHANNELS 3 Zrotation Xrotation Yrotation
                End Site
                {
                  OFFSET 0 0 0
                }
              }
              JOINT ThumbRight
              {
                OFFSET -0.789206 1.424483 -3.765458
                CHANNELS 3 Zrotation Xrotation Yrotation
                End Site
                {
                  OFFSET 0 0 0
                }
              }
            }
          }
        }
      }
    }
  }
  JOINT HipLeft
  {
    OFFSET -4.648358 -0.217034 -0.602914
    CHANNELS 3 Zrotation Xrotation Yrotation
    JOINT KneeLeft
    {
      OFFSET 4.803307 -37.212052 -9.692826
      CHANNELS 3 Zrotation Xrotation Yrotation
      JOINT AnkleLeft
      {
        OFFSET -0.438654 -26.367469 -0.751110
        CHANNELS 3 Zrotation Xrotation Yrotation
        JOINT FootLeft
        {
          OFFSET 2.700456 -6.640465 -6.197188
          CHANNELS 3 Zrotation Xrotation Yrotation
          End Site
          {
            OFFSET 0 0 0
          }
        }
      }
    }
  }
  JOINT HipRight
  {
    OFFSET 1.947997 1.889656 -3.465053
    CHANNELS 3 Zrotation Xrotation Yrotation
    JOINT KneeRight
    {
      OFFSET 7.514374 -30.696619 -12.506482
      CHANNELS 3 Zrotation Xrotation Yrotation
      JOINT AnkleRight
      {
        OFFSET -2.839491 -25.539035 -8.137192
        CHANNELS 3 Zrotation Xrotation Yrotation
        JOINT FootRight
        {
          OFFSET -3.252762 2.437415 -5.216824
          CHANNELS 3 Zrotation Xrotation Yrotation
          End Site
          {
            OFFSET 0 0 0
          }
        }
      }
    }
  }
}
MOTION
Frames: 10
Frame Time: 0.033333
176.147849 83.531331 276.188054 0.000000 0.000000 23.455882 -0.000000 0.000000 -23.455882 -0.000000 0.000000 0.000000 -0.000000 0.000000 0.000000 0.000000 0.000000 0.000000 -0.000000 0.000000 0.000000 -0.000000 0.000000 0.000000 -0.000000 0.000000 0.000000 -0.000000 0.000000 0.000000 0.000000 0.000000 0.000000 0.000000 0.000000 0.000000 -0.000000 0.000000 0.000000 -0.000000 0.000000 0.000000 -0.000000 0.000000 0.000000 -0.000000 0.000000 0.000000 0.000000 0.000000 0.000000 0.000000 0.000000 0.000000 -0.000000 0.000000 -23.455882 -0.000000 0.000000 0.000000 -0.000000 0.000000 0.000000 0.000000 0.000000 0.000000 -0.000000 0.000000 -23.455882 -0.000000 0.000000 0.000000 -0.000000 0.000000 0.000000 0.000000 0.000000 0.000000
175.717743 83.324910 276.695982 -0.801441 -0.945815 23.884866 -0.058389 0.477443 -23.946651 1.047591 0.533997 0.055456 1.875113 0.552873 -0.167022 0.000000 0.000000 0.000000 1.262086 -2.480042 0.265094 -0.089793 0.798503 -0.624811 -3.248114 5.463192 2.078962 2.769978 -4.819782 -1.473202 0.000000 0.000000 0.000000 0.000000 0.000000 0.000000 1.548993 -1.527879 -0.100766 -2.971159 3.804224 0.839489 1.309561 -4.692875 -1.539756 16.098238 -0.101524 5.651291 0.000000 0.000000 0.000000 0.000000 0.000000 0.000000 1.115808 0.540208 -23.896741 1.516063 1.525818 -0.088750 -6.261235 3.850099 6.583524 0.000000 0.000000 0.000000 0.007379 0.420901 -23.629788 2.071958 3.807790 -1.007858 4.602149 -12.883279 0.382363 0.000000 0.000000 0.000000
175.399967 83.159376 277.139638 -1.441189 -1.711267 25.011162 -0.123931 0.871345 -25.125856 1.202609 0.605223 0.028370 4.719009 1.449593 -0.330246 0.000000 0.000000 0.000000 3.009273 -4.096354 0.577361 -0.140291 1.436051 -1.151964 -6.469444 10.477120 4.365485 5.363978 -9.265329 -2.807231 0.000000 0.000000 0.000000 0.000000 0.000000 0.000000 3.626268 -2.331646 -0.034931 -5.729103 6.783049 1.578085 2.439199 -8.568809 -2.760112 32.321090 1.740327 9.944939 0.000000 0.000000 0.000000 0.000000 0.000000 0.000000 2.029781 0.940852 -25.049354 2.442197 2.876990 -0.178724 -11.570721 6.176914 12.030977 0.000000 0.000000 0.000000 0.087818 0.657413 -24.615330 3.563990 6.755396 -1.765523 14.337958 -31.034473 3.010960 0.000000 0.000000 0.000000
175.194523 83.034728 277.519023 -1.927816 -2.306423 26.794447 -0.172923 1.189608 -26.951534 1.680368 0.841234 0.039188 7.316544 2.045914 -0.593023 0.000000 0.000000 0.000000 4.056250 -5.568180 0.816408 -0.157608 1.955731 -1.596058 -9.531012 14.821548 6.692000 7.729522 -13.094198 -3.937778 0.000000 0.000000 0.000000 0.000000 0.000000 0.000000 5.010166 -3.038619 0.075890 -8.233974 8.923866 2.140580 3.420138 -11.640573 -3.696248 44.460654 4.917462 11.470495 0.000000 0.000000 0.000000 0.000000 0.000000 0.000000 2.761009 1.188267 -26.861895 2.835268 4.100289 -0.250387 -15.321804 6.911087 15.787588 0.000000 0.000000 0.000000 0.222011 0.714510 -26.363429 4.434781 8.812693 -2.212309 34.863295 -52.579937 14.440326 0.000000 0.000000 0.000000
175.101409 82.950966 277.834136 -2.267053 -2.738458 29.163161 -0.191422 1.436795 -29.351288 2.079242 1.034194 0.049727 10.060227 2.536303 -0.914834 0.000000 0.000000 0.000000 4.830136 -6.752616 1.015456 -0.145850 2.389762 -1.968543 -12.233256 18.298417 8.834512 9.811220 -16.040892 -4.835236 0.000000 0.000000 0.000000 0.000000 0.000000 0.000000 6.099822 -3.440334 0.257389 -10.449382 10.229505 2.458094 4.264873 -13.919177 -4.370447 51.284380 8.467218 10.427409 0.000000 0.000000 0.000000 0.000000 0.000000 0.000000 3.314730 1.284202 -29.254515 2.720702 5.233822 -0.288760 -17.182268 6.184942 17.595492 0.000000 0.000000 0.000000 0.383170 0.590534 -28.795894 4.663946 9.983131 -2.308086 72.272534 -66.165110 43.727114 0.000000 0.000000 0.000000
175.120626 82.908091 278.084979 -2.461903 -3.011588 32.018812 -0.174519 1.613589 -32.226160 2.400704 1.184608 0.061168 12.929624 2.905081 -1.285789 0.000000 0.000000 0.000000 5.343931 -7.697030 1.172234 -0.107317 2.762524 -2.277974 -14.361620 20.784479 10.558981 11.565810 -17.889877 -5.514437 0.000000 0.000000 0.000000 0.000000 0.000000 0.000000 6.888964 -3.539554 0.501500 -12.348351 10.711574 2.472172 4.967259 -15.408483 -4.794526 53.241384 12.163567 7.619250 0.000000 0.000000 0.000000 0.000000 0.000000 0.000000 3.684679 1.245121 -32.123591 2.095232 6.309047 -0.279888 -17.022875 4.069750 17.386622 0.000000 0.000000 0.000000 0.537324 0.280681 -31.809918 4.256235 10.290036 -2.037893 107.108456 -68.631807 72.854647 0.000000 0.000000 0.000000
175.002683 82.797521 278.436578 -3.194086 -3.254356 35.238370 0.106863 1.634370 -35.495284 2.823207 1.262453 0.066815 17.838818 3.185901 -1.900056 0.000000 0.000000 0.000000 5.756018 -7.465899 1.139494 0.111617 2.185845 -2.415113 -15.305022 21.264599 11.052840 11.299770 -16.937651 -5.817987 0.000000 0.000000 0.000000 0.000000 0.000000 0.000000 7.980963 -3.396609 0.884697 -13.310628 10.117227 1.911469 2.699445 -14.804248 -4.662265 58.238706 9.545712 9.615849 0.000000 0.000000 0.000000 0.000000 0.000000 0.000000 6.024997 1.479647 -35.431919 -0.051350 5.377769 -0.135217 -11.901846 -3.515421 10.883429 0.000000 0.000000 0.000000 3.021124 -0.448895 -35.627422 -0.064690 8.246419 -0.233668 83.888178 -75.930008 46.182248 0.000000 0.000000 0.000000
175.241578 82.753620 278.644703 -3.171890 -3.251055 39.441943 -0.002970 1.714055 -39.703560 2.938854 1.257990 0.064622 22.784533 3.706707 -2.610291 0.000000 0.000000 0.000000 6.280650 -6.975653 1.045049 -0.169505 1.772511 -2.345861 -17.122436 22.274092 12.185832 15.176191 -16.554460 -6.604926 0.000000 0.000000 0.000000 0.000000 0.000000 0.000000 9.107040 -3.175646 1.306112 -16.539528 9.106554 1.208001 5.054268 -12.154046 -3.269831 45.448865 17.179318 1.114634 0.000000 0.000000 0.000000 0.000000 0.000000 0.000000 6.507707 1.607257 -39.528373 -2.906720 6.261916 -0.079856 -8.642988 -9.446434 8.463648 0.000000 0.000000 0.000000 4.007975 -1.629462 -40.431209 -3.383789 5.990425 1.338091 137.559777 -78.061731 92.364563 0.000000 0.000000 0.000000
175.795729 82.920983 278.703258 -2.247193 -2.938507 44.651326 -0.314029 1.917241 -44.856987 3.811823 1.808606 0.155798 24.847850 2.988809 -2.889683 0.000000 0.000000 0.000000 5.839746 -7.984294 1.007414 -1.003932 1.942128 -2.260930 -17.625888 23.575721 12.982813 15.682098 -18.045069 -6.817007 0.000000 0.000000 0.000000 0.000000 0.000000 0.000000 7.449587 -3.457757 1.295933 -17.193054 8.346589 0.906865 2.921033 -7.911469 -1.132436 37.227270 18.430674 -2.953945 0.000000 0.000000 0.000000 0.000000 0.000000 0.000000 5.864452 2.356107 -44.481324 -4.346592 6.871577 -0.207279 -9.633535 -4.893393 13.497013 0.000000 0.000000 0.000000 1.289548 -2.249067 -45.766538 -1.758315 6.311067 1.277880 103.510185 -78.894181 61.379289 0.000000 0.000000 0.000000
176.668479 83.132811 278.554303 -0.911841 -2.540013 48.335973 -0.507336 2.192701 -48.460147 2.883312 1.468257 0.129092 26.504887 3.121205 -3.120453 0.000000 0.000000 0.000000 5.853901 -8.937455 1.200281 -0.356663 3.706151 -2.871613 -15.878526 25.036017 13.481612 16.960503 -21.812186 -7.157558 0.000000 0.000000 0.000000 0.000000 0.000000 0.000000 7.067512 -2.465177 1.521248 -18.900557 7.690139 0.478943 7.156849 -13.387428 -3.412604 24.432428 32.536517 -7.664958 0.000000 0.000000 0.000000 0.000000 0.000000 0.000000 4.602566 3.838867 -47.836773 -5.113919 7.509358 -0.416156 -1.920882 -11.257569 6.363286 0.000000 0.000000 0.000000 -4.297749 -1.342307 -48.914697 5.438623 8.663116 -1.085109 63.973057 -56.757653 38.732415 0.000000 0.000000 0.000000
